<svg height="48" width="48" xmlns="http://www.w3.org/2000/svg"><path d="M50 23C50 8.62 38.38-3 24-3S-2 8.62-2 23 9.62 49 24 49s26-11.62 26-26z" fill="none"/><g fill="#333"><path d="M48 16.26v13.58a5.26 5.26 0 0 1-5.26 5.26H10.21a5.26 5.26 0 0 1-5.26-5.26v-.87H3.17c-1.74 0-3.16-1.42-3.16-3.16v-5.53c0-1.74 1.42-3.15 3.16-3.16h1.78v-.87a5.26 5.26 0 0 1 5.26-5.26h32.53A5.26 5.26 0 0 1 48 16.25zM4.94 26.87v-7.63H3.16c-.58 0-1.05.47-1.05 1.05v5.53c0 .58.47 1.05 1.05 1.05zM45.9 16.26a3.16 3.16 0 0 0-3.16-3.16H10.21a3.16 3.16 0 0 0-3.16 3.16v13.58A3.16 3.16 0 0 0 10.21 33h32.53a3.16 3.16 0 0 0 3.16-3.16z"/><path d="M20.55 22.52c.2.33.2.74 0 1.07s-.56.53-.94.52h-1.84v1.84c.01.38-.19.74-.52.94s-.74.2-1.07 0-.53-.56-.52-.94v-1.84h-1.84c-.38.01-.74-.19-.94-.52s-.2-.74 0-1.07.56-.53.94-.52h1.84v-1.84c-.01-.38.19-.74.52-.94s.74-.2 1.07 0 .53.56.52.94V22h1.84c.38-.01.74.19.94.52zm19.06-2.36v5.79c.01.38-.19.74-.52.94s-.74.2-1.07 0-.53-.56-.52-.94v-5.79a1.05 1.05 0 1 1 2.1 0z"/></g></svg>