<svg xmlns="http://www.w3.org/2000/svg" width="48" height="48"><style>.shp1{fill:#fff}</style><g id="Layer"><path id="Layer" d="M50 24C50 9.62 38.38-2 24-2S-2 9.62-2 24 9.62 50 24 50s26-11.62 26-26z" fill="none"/><g id="Layer"><path id="Layer" class="shp1" d="M18 26c0-3.31 2.69-6 6-6s6 2.69 6 6-2.69 6-6 6-6-2.69-6-6zm2 0c0 2.21 1.79 4 4 4s4-1.79 4-4-1.79-4-4-4-4 1.79-4 4z"/><path id="Layer" class="shp1" d="M23 27c.55 0 1-.45 1-1 .55 0 1-.45 1-1s-.45-1-1-1c-1.1 0-2 .9-2 2 0 .55.45 1 1 1z"/><path id="Layer" class="shp1" d="M48 7v7c0 2.21-1.79 4-4 4v4c0 11.03-8.97 20-20 20S4 33.03 4 22v-4c-2.21 0-4-1.79-4-4V7c0-.55.45-1 1-1h46c.55 0 1 .45 1 1zm-6 11H29.94c2.45 1.82 4.06 4.72 4.06 8 0 5.51-4.49 10-10 10s-10-4.49-10-10c0-3.28 1.61-6.18 4.06-8H6v4c0 9.93 8.08 18 18 18s18-8.07 18-18zm-26 8c0 4.41 3.59 8 8 8s8-3.59 8-8-3.59-8-8-8-8 3.59-8 8zM46 8H2v6c0 1.1.9 2 2 2h40c1.1 0 2-.9 2-2z"/><path id="Layer" class="shp1" d="M38 21c0-.55-.45-1-1-1s-1 .45-1 1 .45 1 1 1 1-.45 1-1z"/></g></g></svg>