<svg xmlns="http://www.w3.org/2000/svg" width="48" height="48"><style></style><g id="Layer"><path id="Layer" d="M49 24C49 9.62 37.38-2 23-2S-3 9.62-3 24 8.62 50 23 50s26-11.62 26-26z" fill="none"/><path id="Layer" d="M13.9 5.04c.79-.99 1.1-2.52.75-3.73-.16-.54.16-1.11.7-1.27.54-.16 1.11.16 1.27.7.53 1.84.08 4.08-1.12 5.58-1.09 1.37-1.38 3.77-.12 4.94a1.027 1.027 0 0 1-1.4 1.5c-2.14-2-1.77-5.61-.08-7.72zm6.73 1.19c-.57 0-1.02-.46-1.02-1.02 0-.57.46-1.02 1.02-1.02h6.74c.57 0 1.02.46 1.02 1.02 0 .57-.46 1.02-1.02 1.02h-6.73zm22.84 9.8v8.2c0 4.09-3.07 7.49-7.03 7.99v9.15h1.02c.57 0 1.02.46 1.02 1.02v4.55c0 .56-.46 1.02-1.02 1.02H4.09c-.57 0-1.02-.46-1.02-1.02v-4.55c0-.56.46-1.02 1.02-1.02h.85c-.4-8.83.47-18.75 3.96-22.05l-5.64-7.73c-.13-.18-.2-.39-.2-.6V9.01c0-.57.46-1.02 1.02-1.02h4.24c.19-1.08.64-2.12 1.3-2.94.79-.99 1.1-2.52.75-3.73a1.027 1.027 0 0 1 1.97-.57c.53 1.84.08 4.08-1.12 5.58-.56.69-.9 1.65-.95 2.59.01.08.01.15 0 .23.01.82.26 1.6.83 2.13a1.027 1.027 0 0 1-1.4 1.5c-.74-.69-1.22-1.64-1.4-2.73H5.11v.62l6.03 8.26c.09.12.15.25.18.4.03.15.03.3 0 .45-.07.29-.26.54-.53.68-1.25.69-2.37 3.14-3.07 6.73-.74 3.83-1 8.73-.74 14.2h27.4v-10.1c0-.57.46-1.02 1.02-1.02 3.32 0 6-2.69 6.01-6.01v-8.2c0-3.32-2.69-6-6.01-6.01h-7.02v22.17a3.24 3.24 0 1 1-6.48 0V13.08c0-.57.46-1.02 1.02-1.02.57 0 1.02.46 1.02 1.02v19.14c.03.64.55 1.15 1.19 1.15.64 0 1.17-.51 1.19-1.15V10.05h-8.84V8h17.91c4.44 0 8.05 3.61 8.05 8.05zm-7.03 27.38H5.12v2.5h31.32zm-2.05-18.1V14.95c0-.57.46-1.02 1.02-1.02.57 0 1.02.46 1.02 1.02v10.36c0 .57-.46 1.02-1.02 1.02-.57 0-1.02-.46-1.02-1.02z" fill="#333"/></g></svg>