<svg xmlns="http://www.w3.org/2000/svg" width="48" height="48"><style>.shp1{fill:#333}</style><g id="Layer"><path id="Layer" d="M50 23C50 8.62 38.38-3 24-3S-2 8.62-2 23 9.62 49 24 49s26-11.62 26-26z" fill="none"/><g id="Layer"><path id="Layer" class="shp1" d="M47.66 21.35c.31.28.43.72.28 1.11-.15.39-.52.65-.94.65h-5v21.11c0 .55-.45 1.01-1 1.01H7c-.55 0-1-.45-1-1.01V23.11H1c-.42 0-.79-.26-.94-.65-.14-.39-.03-.83.28-1.11l23-20.11a.99.99 0 0 1 1.31 0l23 20.11zm-3.33-.24L24 3.34 3.67 21.11H7c.55 0 1 .45 1 1v21.11h32V22.11c0-.55.45-1 1-1z"/><path id="Layer" class="shp1" d="M30.12 23.59c0-1.04-.84-1.88-1.88-1.88s-1.88.84-1.88 1.88.84 1.88 1.88 1.88 1.88-.84 1.88-1.88z"/><path id="Layer" class="shp1" d="M20.33 24.25c0-4 3.25-7.25 7.25-7.25s7.25 3.25 7.25 7.25-3.25 7.25-7.25 7.25c-.78 0-1.56-.13-2.3-.38l-6.29 6.29c-.19.19-.46.3-.73.3h-3.11c-.57 0-1.04-.46-1.04-1.03v-3.11c0-.27.11-.54.3-.73l6.29-6.29c-.26-.75-.38-1.52-.38-2.3zm2.07 0c0 .73.16 1.46.47 2.12.18.39.09.85-.21 1.16L16.19 34v1.64h1.64l6.47-6.47c.3-.31.77-.39 1.16-.21.67.31 1.39.46 2.12.47 2.86 0 5.17-2.32 5.18-5.18 0-2.86-2.32-5.17-5.18-5.18-2.86 0-5.17 2.32-5.18 5.18z"/></g></g></svg>