<svg xmlns="http://www.w3.org/2000/svg" width="48" height="48"><style>.shp1{fill:#333}</style><g id="Layer"><path id="Layer" d="M50 24C50 9.62 38.38-2 24-2S-2 9.62-2 24 9.62 50 24 50s26-11.62 26-26z" fill="none"/><g id="Layer"><path id="Layer" class="shp1" d="M42.59 23.42c2.95 0 5.34 2.39 5.34 5.34v10.96c0 .59-.48 1.07-1.07 1.07h-3.97v4.5c0 .59-.48 1.07-1.07 1.07H7.06c-.59 0-1.07-.48-1.07-1.07v-4.5H2.53c-.59 0-1.07-.48-1.07-1.07V28.76c0-2.95 2.39-5.34 5.35-5.34h6.46V11.67a3.583 3.583 0 0 1-2.66-3.46c0-1.83 1.37-3.36 3.19-3.57a3.6 3.6 0 0 1 3.91 2.76c.41 1.78-.57 3.58-2.29 4.19v11.83zM14.19 9.65a1.451 1.451 0 0 0 0-2.9 1.451 1.451 0 0 0 0 2.9zm26.57 31.14H8.13v3.43h32.63zm5.04-12.03c0-1.77-1.44-3.21-3.21-3.21H6.8c-1.77 0-3.21 1.44-3.21 3.21v9.89h42.2z"/><path id="Layer" class="shp1" d="M10.62 29.02c.59 0 1.07.48 1.07 1.07v4.03a1.071 1.071 0 0 1-2.14 0v-4.03c0-.59.48-1.07 1.07-1.07zm26.41-.68a3.5 3.5 0 0 1 3.49 3.49v.04c-.07 1.93-1.6 3.45-3.49 3.45-1.93 0-3.49-1.56-3.49-3.49 0-1.93 1.56-3.49 3.49-3.49zm0 4.84c.72 0 1.31-.6 1.35-1.37-.01-.74-.62-1.34-1.36-1.33-.74.01-1.34.61-1.34 1.36 0 .74.61 1.34 1.35 1.34zm-20.18-4.16c.59 0 1.07.48 1.07 1.07v4.03c-.02.57-.5 1.02-1.07 1.02-.57 0-1.04-.45-1.07-1.02v-4.03c0-.59.48-1.07 1.07-1.07zM7.53 12.49c-.28 0-.56-.11-.76-.31a6.005 6.005 0 0 1 0-8.47c.42-.42 1.1-.42 1.51 0 .42.42.42 1.1 0 1.51a3.85 3.85 0 0 0 0 5.44c.31.31.4.77.23 1.16-.17.4-.55.66-.99.66z"/><path id="Layer" class="shp1" d="M3.45 14.76c.43 0 .82-.26.99-.66.17-.4.07-.86-.23-1.17-2.76-2.76-2.75-7.28.01-10.08.29-.27.41-.67.31-1.05a1.066 1.066 0 0 0-1.83-.44C-.88 5-.88 10.87 2.71 14.45c.2.2.47.31.76.31z"/></g></g></svg>