<svg xmlns="http://www.w3.org/2000/svg" width="48" height="48"><style>.shp1{fill:#333}</style><g id="Layer"><path id="Layer" d="M50 22C50 7.62 38.38-4 24-4S-2 7.62-2 22 9.62 48 24 48s26-11.62 26-26z" fill="none"/><g id="Layer"><path id="Layer" class="shp1" d="M48 17.15c0 2.84-2.29 5.15-5.1 5.15a5.03 5.03 0 0 1-2.78-.84l-5.51 5.57c.52.81.83 1.77.83 2.81 0 2.84-2.29 5.15-5.1 5.15-2.81 0-5.1-2.31-5.1-5.15 0-.96.27-1.9.77-2.72l-5.59-5.66c-.8.53-1.75.84-2.78.84-1.03 0-1.98-.31-2.78-.84l-5.51 5.57c.54.84.83 1.81.83 2.81 0 2.84-2.29 5.15-5.1 5.15-2.81 0-5.1-2.31-5.1-5.15 0-2.84 2.29-5.15 5.1-5.15.99 0 1.95.29 2.78.84l5.51-5.57a5.18 5.18 0 0 1-.83-2.81c0-2.84 2.29-5.15 5.1-5.15 2.81 0 5.1 2.31 5.1 5.15 0 1-.29 1.97-.83 2.81l5.56 5.63c.82-.56 1.8-.89 2.87-.89.99 0 1.96.29 2.78.84l5.51-5.57a5.18 5.18 0 0 1-.83-2.81c0-2.84 2.29-5.15 5.1-5.15 2.81 0 5.1 2.31 5.1 5.15zM8.09 29.85c0-1.67-1.34-3.02-2.99-3.02-1.65 0-2.99 1.36-2.99 3.02 0 1.67 1.34 3.02 2.99 3.02 1.65 0 2.99-1.36 2.99-3.02zm12.55-12.7c0-1.67-1.34-3.02-2.99-3.02-1.65 0-2.99 1.36-2.99 3.02 0 1.67 1.34 3.02 2.99 3.02 1.65 0 2.99-1.36 2.99-3.02zm12.7 12.7c0-1.67-1.34-3.02-2.99-3.02-1.65 0-2.99 1.36-2.99 3.02 0 1.67 1.34 3.02 2.99 3.02 1.65 0 2.99-1.36 2.99-3.02zm12.55-12.7c0-1.67-1.34-3.02-2.99-3.02-1.65 0-2.99 1.36-2.99 3.02 0 1.67 1.34 3.02 2.99 3.02 1.65 0 2.99-1.36 2.99-3.02z"/><path id="Layer" class="shp1" d="M16.71 24.29a.984.984 0 0 0-.7-.29c-.26 0-.52.1-.7.29l-2.02 2.02a.984.984 0 0 0 0 1.4c.39.39 1.02.39 1.4 0l2.02-2.02c.19-.19.29-.44.29-.7 0-.26-.1-.52-.29-.7zm19-6a.984.984 0 0 0-.7-.29c-.26 0-.52.1-.7.29l-2.02 2.02a.984.984 0 0 0 0 1.4c.39.39 1.02.39 1.4 0l2.02-2.02c.19-.19.29-.44.29-.7 0-.26-.1-.52-.29-.7z"/></g></g></svg>