<svg xmlns="http://www.w3.org/2000/svg" width="52" height="52"><style>.shp1{fill:#8c8b8b}</style><g id="Layer"><path id="Layer" d="M52 26C52 11.62 40.6 0 26.49 0h-.98C11.4 0 0 11.62 0 26s11.4 26 25.51 26h.98C40.6 52 52 40.38 52 26z" opacity=".4" fill="#d8d8d8"/><g id="Layer"><path id="Layer" class="shp1" d="M40.57 27.99L30.75 37c-.58.53-1.4.66-2.11.34a1.998 1.998 0 0 1-1.16-1.83V17.49c0-.79.46-1.51 1.16-1.83.71-.32 1.54-.19 2.11.34l9.82 9.01a2.034 2.034 0 0 1 0 2.98z"/><path id="Layer" class="shp1" d="M27.81 27.99L17.99 37c-.58.53-1.4.66-2.11.34a1.998 1.998 0 0 1-1.16-1.83V17.49c0-.79.46-1.51 1.16-1.83.71-.32 1.54-.19 2.11.34l9.82 9.01a2.034 2.034 0 0 1 0 2.98z"/></g></g></svg>