<svg xmlns="http://www.w3.org/2000/svg" width="48" height="48"><style>.shp1{fill:#fff}</style><g id="Layer"><path id="Layer" d="M50 23C50 8.62 38.38-3 24-3S-2 8.62-2 23 9.62 49 24 49s26-11.62 26-26z" fill="none"/><g id="Layer"><path id="Layer" class="shp1" d="M36 20.06c0 .55-.45 1-1 1H5c-.55 0-1-.45-1-1v-4c0-.55.45-1 1-1h30c.55 0 1 .45 1 1zm-2-3H6v2h28zm-30-7c0-.55.45-1 1-1h22c.55 0 1 .45 1 1s-.45 1-1 1H5c-.55 0-1-.45-1-1zm30 1c-1.11 0-2-.89-2-2 0-1.11.89-2 2-2 1.11 0 2 .89 2 2 0 1.11-.89 2-2 2zm-5.17 19.45c.52.78 1.17 1.75 1.17 3.55 0 .55-.45 1-1 1s-1-.45-1-1c0-1.2-.37-1.75-.83-2.45-.52-.78-1.17-1.75-1.17-3.55 0-.55.45-1 1-1s1 .45 1 1c0 1.2.37 1.75.83 2.45zM11 27.06c.55 0 1 .45 1 1 0 1.8-.65 2.77-1.17 3.56-.46.7-.83 1.25-.83 2.45 0 .55-.45 1-1 1s-1-.45-1-1c0-1.8.65-2.77 1.17-3.55.46-.7.83-1.25.83-2.45 0-.55.45-1 1-1zm9 1v6c0 .55-.45 1-1 1s-1-.45-1-1v-6c0-.55.45-1 1-1s1 .45 1 1zm23 0c0 .55-.45 1-1 1h-1v1c0 .55-.45 1-1 1s-1-.45-1-1v-1h-1c-.55 0-1-.45-1-1s.45-1 1-1h1v-1c0-.55.45-1 1-1s1 .45 1 1v1h1c.55 0 1 .45 1 1zm0 8c0 .55-.45 1-1 1h-4c-.55 0-1-.45-1-1s.45-1 1-1h4c.55 0 1 .45 1 1z"/><path id="Layer" class="shp1" d="M48 25.06v10c0 4.41-3.59 8-8 8s-8-3.59-8-8v-10H4c-2.21 0-4-1.79-4-4v-14c0-2.21 1.79-4 4-4h32c2.21 0 4 1.79 4 4v14h4c2.21 0 4 1.79 4 4zm-12-4h2v-14c0-1.1-.9-2-2-2H4c-1.1 0-2 .9-2 2v14c0 1.1.9 2 2 2h28.56c.69-1.19 1.97-2 3.44-2zm10 4c0-1.1-.9-2-2-2h-8c-1.1 0-2 .9-2 2v10c0 3.31 2.69 6 6 6s6-2.69 6-6z"/></g></g></svg>