<svg xmlns="http://www.w3.org/2000/svg" width="48" height="48"><style>.shp1{fill:#333}</style><g id="Layer"><path id="Layer" d="M49 24C49 9.62 37.38-2 23-2S-3 9.62-3 24 8.62 50 23 50s26-11.62 26-26z" fill="none"/><g id="Layer"><path id="Layer" class="shp1" d="M34.4 6.4c0 .44-.36.8-.8.8H32c-.44 0-.8-.36-.8-.8 0-.44.36-.8.8-.8h1.6c.44 0 .8.36.8.8zM17.6 17.6v11.2H8V17.6zM12 19.2v2.4h1.6v-2.4zm3.2 0v4h-4.8v-4h-.8v8H16v-8zm5.6-2.4v12.8c0 .44-.36.8-.8.8-.44 0-.8-.36-.8-.8V16.8c0-.44.36-.8.8-.8.44 0 .8.36.8.8zm6.4 0v12.8c0 .44-.36.8-.8.8-.44 0-.8-.36-.8-.8V16.8c0-.44.36-.8.8-.8.44 0 .8.36.8.8zM16.8 35.2h12.8c.44 0 .8.36.8.8 0 .44-.36.8-.8.8H16.8c-.44 0-.8-.36-.8-.8 0-.44.36-.8.8-.8z"/><path id="Layer" class="shp1" d="M42.4 1.74v43.92c0 1.29-1.05 2.34-2.34 2.34H6.35c-1.29 0-2.34-1.05-2.34-2.34V1.74C4.01.78 4.79 0 5.75 0h34.93c.96 0 1.74.78 1.74 1.74zM5.6 32h16.8V1.6H5.74c-.08 0-.14.06-.14.14zm35.2 1.6H5.6v12.06c0 .41.33.74.74.74h33.71c.41 0 .74-.33.74-.74zm0-1.6V1.74c0-.08-.06-.14-.14-.14H24V32z"/></g></g></svg>