<svg xmlns="http://www.w3.org/2000/svg" width="48" height="48"><style></style><g id="Layer"><path id="Layer" d="M50 24C50 9.62 38.38-2 24-2S-2 9.62-2 24 9.62 50 24 50s26-11.62 26-26z" fill="none"/><g id="Layer"><path id="Layer" d="M12.38 31.3c-.79.25-1.59.38-2.39.38-2.72 0-4.93-1.43-5.64-3.64-.93-2.92 1.15-6.2 4.65-7.32.79-.25 1.59-.38 2.39-.38 1.4 0 2.66.38 3.66 1.05V1.25 1.14l.01-.05a.92.92 0 0 1 .11-.33l.01-.02c0-.01.01-.02.01-.02.07-.12.15-.22.26-.3.01-.01.02-.02.03-.02.02-.01.04-.03.06-.04h.01l.03-.02.06-.04.04-.02.06-.03c.02-.01.03-.01.05-.02l.05-.02.06-.01.05-.01.06-.01.04-.01h.22c.02 0 .03.01.05.01.12.02.23.05.33.11l.03.01.03.02c.1.06.19.13.27.22.01.01.02.02.03.04.01.01.02.02.02.03.02.02.03.04.04.06v.01c.62.95 2.63 3.6 4.42 4.47 3.61 1.75 3.48 5 3.43 6.39l-.01.23a1.101 1.101 0 0 1-2.2-.06l.01-.25c.07-1.69-.05-3.29-2.18-4.32-1.2-.58-2.35-1.64-3.27-2.66v20.88c.02 1.05-.3 2.11-.95 3.09-.88 1.33-2.28 2.35-3.93 2.88zm2.08-4.1c.56-.84.72-1.74.46-2.55-.41-1.28-1.8-2.11-3.54-2.11-.58 0-1.16.09-1.72.27-2.34.75-3.78 2.78-3.22 4.54.41 1.28 1.8 2.11 3.54 2.11.58 0 1.16-.09 1.72-.27 1.17-.37 2.15-1.08 2.76-1.99zm28.35 10.65c-.88 1.33-2.28 2.35-3.93 2.88-.79.25-1.59.38-2.39.38-2.72 0-4.93-1.43-5.64-3.64-.93-2.92 1.15-6.2 4.65-7.32.79-.25 1.59-.38 2.39-.38 1.39 0 2.65.38 3.65 1.04V16.65l-13.55 5.99v18.75c.09 1.13-.23 2.29-.93 3.35-.88 1.33-2.28 2.35-3.93 2.88-.79.25-1.59.38-2.39.38-2.72 0-4.93-1.43-5.64-3.64-.47-1.46-.21-3.03.72-4.44.88-1.33 2.28-2.35 3.93-2.88.79-.25 1.59-.38 2.39-.38 1.39 0 2.65.38 3.64 1.04V17.65l.01-.05.01-.06c0-.02.01-.04.01-.06l.01-.05c.01-.02.01-.04.02-.06l.01-.04c.01-.03.03-.07.05-.1.01-.02.02-.03.03-.05l.03-.04.06-.09.03-.03c.01-.02.03-.03.04-.05l.03-.03c.01-.01.03-.03.05-.04l.04-.03c.02-.01.03-.02.05-.04l.05-.03.04-.02c.02-.01.05-.02.07-.04l.02-.01h.02L42.2 9.78h.01c.02-.01.05-.02.08-.03l.03-.01c.02-.01.04-.01.06-.02.02 0 .03-.01.05-.01l.04-.01c.02 0 .05-.01.07-.01H42.76l.04.01c.02 0 .04.01.06.01.02 0 .04.01.05.01l.05.01.06.02.04.02.06.03.04.02c.02.01.03.02.05.03l.04.03.04.03c.03.02.05.04.08.06.02.01.03.03.05.04l.03.03c.01.02.03.03.04.05l.03.04c.01.02.02.03.03.05l.03.05.02.04c.01.02.02.05.03.07l.01.02v.01c.01.03.02.05.03.08 0 .01.01.02.01.03l.02.07.01.04.01.04.01.07v23.83c.09 1.13-.23 2.29-.94 3.35zm-17.6 5.65c.33-.5.53-1.04.57-1.55V41.49a2.59 2.59 0 0 0-.11-.54c-.41-1.28-1.8-2.11-3.54-2.11-.58 0-1.16.09-1.72.27-1.17.37-2.15 1.08-2.76 1.99-.56.84-.72 1.74-.46 2.55.41 1.28 1.8 2.11 3.54 2.11.58 0 1.16-.09 1.72-.27 1.17-.37 2.15-1.08 2.76-1.99zm16.32-29.27v-1.75l-13.55 5.99v1.75zm-3.32 24.39c1.17-.37 2.15-1.08 2.76-1.99.36-.54.55-1.1.58-1.65-.01-.04-.01-.09-.01-.13v-.23a2.59 2.59 0 0 0-.11-.54c-.41-1.28-1.8-2.11-3.54-2.11-.58 0-1.16.09-1.72.27-2.34.75-3.78 2.78-3.22 4.54.41 1.28 1.8 2.11 3.54 2.11.58 0 1.16-.09 1.72-.27z" fill="#333"/></g></g></svg>