<svg xmlns="http://www.w3.org/2000/svg" width="48" height="48"><style>.shp1{fill:#333}</style><g id="Layer"><path id="Layer" d="M50 23C50 8.62 38.38-3 24-3S-2 8.62-2 23 9.62 49 24 49s26-11.62 26-26z" fill="none"/><g id="Layer"><path id="Layer" class="shp1" d="M48 20.06c0 10.77-3.93 17-24 17s-24-6.23-24-17c0-5.66 11.66-11 24-11s24 5.35 24 11zm-46 0c0 3.38 8.84 7 22 7s22-3.62 22-7c0-3.62-9.24-9-22-9s-22 5.38-22 9zm22 15c15.72 0 20.6-3.82 21.71-10.94-4.05 3.25-12.91 4.94-21.71 4.94S6.34 27.37 2.29 24.12C3.4 31.24 8.28 35.06 24 35.06z"/><path id="Layer" class="shp1" d="M19 14.06c0-.55-.45-1-1-1s-1 .45-1 1 .45 1 1 1 1-.45 1-1zM23 14.06c0-.55-.45-1-1-1s-1 .45-1 1 .45 1 1 1 1-.45 1-1zM27 14.06c0-.55-.45-1-1-1s-1 .45-1 1 .45 1 1 1 1-.45 1-1zM31 14.06c0-.55-.45-1-1-1s-1 .45-1 1 .45 1 1 1 1-.45 1-1zM22 32.06c0 .55.45 1 1 1h2c.55 0 1-.45 1-1s-.45-1-1-1h-2c-.55 0-1 .45-1 1z"/></g></g></svg>